<svg height="480pt" viewBox="0 0 480.00869 480" width="480pt" xmlns="http://www.w3.org/2000/svg" xmlns:xlink="http://www.w3.org/1999/xlink"><linearGradient id="a"><stop offset="0" stop-color="#006df0"/><stop offset="1" stop-color="#00e7f0"/></linearGradient><linearGradient id="b" gradientUnits="userSpaceOnUse" x1="112" x2="112" xlink:href="#a" y1="-2.651655" y2="487.228345"/><linearGradient id="c" gradientUnits="userSpaceOnUse" x1="368" x2="368" xlink:href="#a" y1="-2.651655" y2="487.228345"/><linearGradient id="d" gradientUnits="userSpaceOnUse" x1="127.976" x2="127.976" xlink:href="#a" y1="-2.651655" y2="487.228345"/><path d="m24 224.003906h176c13.253906 0 24-10.746094 24-24v-176c0-13.253906-10.746094-23.99999975-24-23.99999975h-176c-13.253906 0-24 10.74609375-24 23.99999975v176c0 13.253906 10.746094 24 24 24zm-8-200c0-4.417968 3.582031-8 8-8h176c4.417969 0 8 3.582032 8 8v176c0 4.417969-3.582031 8-8 8h-176c-4.417969 0-8-3.582031-8-8zm0 0" fill="url(#b)"/><path d="m368 224.003906c61.855469 0 112-50.144531 112-112 0-61.855468-50.144531-111.99999975-112-111.99999975s-112 50.14453175-112 111.99999975c.066406 61.828125 50.171875 111.933594 112 112zm0-208c53.019531 0 96 42.980469 96 96 0 53.019532-42.980469 96-96 96s-96-42.980468-96-96c.058594-52.996094 43.003906-95.941406 96-96zm0 0" fill="url(#c)"/><path d="m418.6875 263.269531c-13.050781-.1875-25.621094 4.914063-34.847656 14.144531l-15.839844 15.839844-15.839844-15.839844c-9.230468-9.230468-21.796875-14.332031-34.847656-14.144531-12.730469.105469-24.867188 5.40625-33.601562 14.671875-18.019532 17.207032-28.0625 41.144532-27.710938 66.0625 0 60.984375 103.121094 131.640625 107.503906 134.625 2.714844 1.84375 6.277344 1.84375 8.992188 0 4.382812-2.984375 107.503906-73.640625 107.503906-134.625.347656-24.917968-9.699219-48.855468-27.726562-66.0625-8.730469-9.261718-20.859376-14.5625-33.585938-14.671875zm-50.6875 198.992188c-30.503906-21.671875-96-76.832031-96-118.257813-.320312-20.832031 8.164062-40.828125 23.359375-55.078125 5.769531-6.105469 13.777344-9.589843 22.175781-9.65625h.472656c8.574219-.027343 16.796876 3.382813 22.839844 9.460938l21.496094 21.496093c3.125 3.125 8.1875 3.125 11.3125 0l21.496094-21.496093c6.128906-6.234375 14.570312-9.65625 23.3125-9.453125 8.398437.066406 16.40625 3.550781 22.175781 9.65625 15.195313 14.246094 23.675781 34.242187 23.359375 55.070312 0 41.425782-65.496094 96.585938-96 118.257813zm0 0" fill="url(#c)"/><path d="m149.472656 273.042969c-4.042968-8.152344-12.371094-13.296875-21.472656-13.261719-8.914062-.082031-17.113281 4.871094-21.191406 12.800781l-102.402344 172.71875c-3.707031 7.4375-3.300781 16.265625 1.074219 23.335938 4.375 7.066406 12.09375 11.367187 20.40625 11.367187h204.226562c8.402344-.011718 16.191407-4.417968 20.527344-11.621094 4.332031-7.199218 4.585937-16.144531.664063-23.578124zm87.449219 187.203125c-1.449219 2.367187-4.03125 3.808594-6.808594 3.789062h-204.226562c-2.777344.019532-5.359375-1.421875-6.808594-3.789062-1.417969-2.171875-1.648437-4.910156-.613281-7.289063l102.398437-172.71875c1.316407-2.742187 4.097657-4.476562 7.136719-4.457031 3.230469.027344 6.144531 1.953125 7.433594 4.917969l101.832031 171.730469c1.261719 2.472656 1.128906 5.429687-.34375 7.78125zm0 0" fill="url(#d)"/></svg>