<svg height="488pt" viewBox="0 -4 488.00205 488" width="488pt" xmlns="http://www.w3.org/2000/svg" xmlns:xlink="http://www.w3.org/1999/xlink"><linearGradient id="a" gradientUnits="userSpaceOnUse" x1="244" x2="244" y1="-7.238975" y2="484.353025"><stop offset="0" stop-color="#006df0"/><stop offset="1" stop-color="#00e7f0"/></linearGradient><path d="m393.792969 144 92.742187-131.382812c1.726563-2.441407 1.945313-5.640626.570313-8.296876-1.375-2.652343-4.117188-4.320312-7.105469-4.320312h-352c-4.417969 0-8 3.582031-8 8v32h-32v-16c0-13.253906-10.746094-24-24-24s-24 10.746094-24 24v16h-32c-4.417969 0-8 3.582031-8 8s3.582031 8 8 8h32v176h-32c-4.417969 0-8 3.582031-8 8s3.582031 8 8 8h32v224c0 4.417969 3.582031 8 8 8h32c4.417969 0 8-3.582031 8-8v-224h32v32c0 4.417969 3.582031 8 8 8h352c2.988281 0 5.730469-1.664062 7.105469-4.320312 1.375-2.652344 1.15625-5.851563-.570313-8.292969zm-337.792969-120c0-4.417969 3.582031-8 8-8s8 3.582031 8 8v16h-16zm0 32h16v176h-16zm16 408h-16v-216h16zm16-232v-176h32v176zm48 40v-256h328.558594l-87.09375 123.386719c-1.957032 2.765625-1.957032 6.464843 0 9.230469l87.09375 123.382812zm0 0" fill="url(#a)"/></svg>