<svg height="480pt" viewBox="0 0 480 480.01408" width="480pt" xmlns="http://www.w3.org/2000/svg" xmlns:xlink="http://www.w3.org/1999/xlink"><linearGradient id="a" gradientUnits="userSpaceOnUse" x1="240.007036" x2="240.007036" y1="-12.169861" y2="538.110139"><stop offset="0" stop-color="#006df0"/><stop offset="1" stop-color="#00e7f0"/></linearGradient><g fill="url(#a)"><path d="m240.007812 168.046875c-35.347656 0-64 28.652344-64 64 0 35.34375 28.652344 64 64 64 35.34375 0 64-28.65625 64-64-.039062-35.332031-28.671874-63.960937-64-64zm0 112c-26.511718 0-48-21.492187-48-48 0-26.511719 21.488282-48 48-48 26.507813 0 48 21.488281 48 48-.027343 26.496094-21.503906 47.972656-48 48zm0 0"/><path d="m480.007812 240.046875c.019532-113.46875-79.425781-211.449219-190.445312-234.875-111.023438-23.429687-223.285156 34.097656-269.109375 137.898437-45.828125 103.800782-12.699219 225.515626 79.417969 291.769532 83.691406 60.234375 196.515625 60.234375 280.207031 0 62.664063-45.113282 99.839844-117.582032 99.929687-194.792969zm-123.367187 120.953125c-.203125-.257812-.449219-.480469-.648437-.738281-2.808594-3.542969-5.800782-6.933594-8.96875-10.160157l-.199219-.191406c-3.15625-3.171875-6.480469-6.171875-9.953125-8.992187-.3125-.253907-.609375-.527344-.929688-.800781-3.359375-2.6875-6.863281-5.167969-10.460937-7.503907l-1.53125-1c-3.542969-2.222656-7.199219-4.246093-10.925781-6.109375l-1.871094-.921875c-3.734375-1.785156-7.554688-3.386719-11.457032-4.800781l-1.96875-.695312c-4-1.367188-8-2.558594-12.078124-3.535157-.59375-.136719-1.195313-.257812-1.785157-.382812-4.226562-.960938-8.5-1.703125-12.800781-2.226563-.40625-.046875-.800781-.070312-1.222656-.109375-4.59375-.511719-9.210938-.773437-13.832032-.785156h-32c-4.613281.015625-9.222656.28125-13.808593.800781-.40625.039063-.800781.0625-1.222657.109375-4.304687.523438-8.574218 1.265625-12.800781 2.226563-.59375.125-1.191406.246094-1.785156.382812-4.09375.976563-8.121094 2.167969-12.078125 3.535156l-1.96875.695313c-3.898438 1.421875-7.71875 3.019531-11.457031 4.800781l-1.871094.921875c-3.738281 1.863281-7.382813 3.886719-10.929687 6.109375l-1.527344 1c-3.597656 2.335938-7.105469 4.800782-10.464844 7.503906-.320312.257813-.613281.53125-.925781.800782-3.472657 2.820312-6.796875 5.824218-9.953125 8.992187l-.199219.191407c-3.167969 3.226562-6.160156 6.617187-8.96875 10.160156-.199219.257812-.449219.480468-.648437.738281-49.304688-47.558594-64.796876-120.285156-39.152344-183.808594 25.640625-63.519531 87.285156-105.109375 155.785156-105.109375s130.140625 41.589844 155.785156 105.109375c25.640625 63.523438 10.148438 136.25-39.152344 183.808594zm-243.394531 63.695312c.25-1.761718.527344-3.511718.855468-5.257812.351563-1.871094.664063-3.75 1.113282-5.597656.625-2.585938 1.433594-5.121094 2.230468-7.65625.546876-1.699219 1.019532-3.417969 1.601563-5.089844 1.023437-2.757812 2.265625-5.429688 3.503906-8.09375.632813-1.363281 1.160157-2.769531 1.839844-4.097656 19.125-37.398438 57.609375-60.910156 99.617187-60.855469h32c41.992188-.042969 80.464844 23.464844 99.582032 60.855469.679687 1.328125 1.210937 2.734375 1.839844 4.097656 1.242187 2.664062 2.480468 5.335938 3.503906 8.09375.617187 1.671875 1.089844 3.390625 1.601562 5.089844.800782 2.535156 1.601563 5.070312 2.230469 7.65625.449219 1.847656.800781 3.726562 1.113281 5.597656.328125 1.746094.609375 3.496094.855469 5.257812-76.363281 52.46875-177.15625 52.46875-253.519531 0zm268-10.855468c-.046875-.226563-.117188-.433594-.167969-.648438-.761719-3.542968-1.675781-7.050781-2.742187-10.519531-.226563-.722656-.472657-1.433594-.703126-2.152344-1.027343-3.144531-2.152343-6.242187-3.410156-9.289062-.191406-.457031-.351562-.914063-.542968-1.359375-1.417969-3.328125-3-6.578125-4.695313-9.769532-.402344-.742187-.800781-1.480468-1.21875-2.222656-.671875-1.199218-1.328125-2.402344-2.03125-3.578125 55.125-51.621093 73.109375-131.683593 45.359375-201.921875-27.753906-70.234375-95.605469-116.382812-171.125-116.382812-75.523438 0-143.375 46.148437-171.128906 116.382812-27.75 70.238282-9.765625 150.300782 45.359375 201.921875-.703125 1.175781-1.359375 2.402344-2.03125 3.578125-.410157.742188-.800781 1.480469-1.21875 2.222656-1.695313 3.199219-3.277344 6.402344-4.695313 9.769532-.191406.445312-.351562.902344-.542968 1.359375-1.257813 3.046875-2.398438 6.144531-3.40625 9.289062-.234376.71875-.480469 1.429688-.707032 2.152344-1.066406 3.46875-1.980468 6.976563-2.742187 10.519531-.046875.214844-.121094.421875-.167969.648438-73.578125-59.800782-101.535156-159.445313-69.804688-248.792969 31.730469-89.34375 116.273438-149.035156 211.085938-149.035156s179.355469 59.691406 211.082031 149.035156c31.730469 89.347656 3.773438 188.992187-69.804687 248.792969zm0 0"/></g></svg>