<svg height="479pt" viewBox="0 0 479.99906 479" width="479pt" xmlns="http://www.w3.org/2000/svg" xmlns:xlink="http://www.w3.org/1999/xlink"><linearGradient id="a" gradientUnits="userSpaceOnUse" x1="239.999532" x2="239.999532" y1="-15.301479" y2="490.122521"><stop offset="0" stop-color="#006df0"/><stop offset="1" stop-color="#00e7f0"/></linearGradient><path d="m451.75 127.691406c-.078125-.144531-.078125-.3125-.175781-.457031-.09375-.144531-.09375-.085937-.132813-.144531-22.398437-41.550782-56.472656-75.632813-98.019531-98.039063-.054687 0-.085937-.105469-.140625-.136719-.152344-.066406-.308594-.125-.464844-.175781-70.488281-37.652343-155.113281-37.652343-225.601562 0-.15625.050781-.3125.109375-.464844.175781-.054688 0-.085938.097657-.140625.136719-41.558594 22.394531-75.640625 56.46875-98.050781 98.015625 0 .054688-.101563.082032-.136719.144532-.03125.0625-.09375.3125-.175781.457031-37.660156 70.5-37.660156 155.144531 0 225.648437.082031.140625.082031.308594.175781.453125.054687.070313.109375.136719.167969.199219 22.382812 41.425781 56.378906 75.40625 97.808594 97.769531.128906.097657.199218.242188.34375.328125.347656.1875.707031.351563 1.082031.480469 70.160156 37.261719 154.238281 37.261719 224.398437 0 .375-.128906.734375-.292969 1.082032-.480469.144531-.085937.214843-.230468.34375-.328125 41.414062-22.371093 75.390624-56.351562 97.757812-97.769531.0625-.0625.117188-.128906.167969-.199219.097656-.144531.097656-.3125.175781-.453125 37.664062-70.503906 37.664062-155.148437 0-225.648437zm-17.734375 1.09375-54.398437 34.023438c-14.476563-26.003906-35.925782-47.449219-61.929688-61.925782l34.023438-54.398437c34.164062 19.75 62.542968 48.121094 82.304687 82.277344zm-131.105469 241.144532c-39.683594 19.402343-86.105468 19.402343-125.789062 0-29.019532-14.09375-52.457032-37.539063-66.546875-66.558594-19.402344-39.6875-19.402344-86.105469 0-125.792969 14.097656-29.019531 37.539062-52.453125 66.5625-66.542969 39.683593-19.402344 86.105469-19.402344 125.789062 0 29.019531 14.09375 52.457031 37.539063 66.546875 66.558594 19.402344 39.6875 19.402344 86.105469 0 125.792969-14.09375 29.019531-37.539062 52.457031-66.5625 66.542969zm-62.910156-353.4375c33.8125-.046876 67.191406 7.613281 97.597656 22.398437l-34.253906 54.761719c-40.398438-17.570313-86.277344-17.570313-126.671875 0l-34.273437-54.761719c30.410156-14.785156 63.789062-22.445313 97.601562-22.398437zm-111.726562 29.980468 34.023437 54.402344c-26.003906 14.476562-47.453125 35.921875-61.929687 61.925781l-54.398438-34.023437c19.757812-34.164063 48.136719-62.542969 82.304688-82.304688zm-112.273438 194.019532c-.046875-33.8125 7.617188-67.191407 22.398438-97.601563l54.761718 34.257813c-17.566406 40.394531-17.566406 86.273437 0 126.671874l-54.761718 34.269532c-14.78125-30.410156-22.445313-63.785156-22.398438-97.597656zm29.984375 111.726562 54.398437-34.023438c14.480469 26.003907 35.917969 47.457032 61.914063 61.953126l-34 54.34375c-34.160156-19.757813-62.539063-48.125-82.3125-82.273438zm96.472656 89.777344 34.207031-54.679688c40.394532 17.566406 86.273438 17.566406 126.671876 0l34.207031 54.679688c-61.570313 29.992187-133.515625 29.992187-195.085938 0zm209.261719-7.503906-34-54.335938c25.996094-14.5 47.4375-35.953125 61.921875-61.953125l54.398437 34.015625c-19.777343 34.148438-48.160156 62.515625-82.320312 82.273438zm89.878906-96.402344-54.757812-34.253906c17.566406-40.398438 17.566406-86.277344 0-126.671876l54.757812-34.273437c29.894532 61.632813 29.894532 133.566406 0 195.199219zm0 0" fill="url(#a)"/></svg>