<svg height="480pt" viewBox="0 0 480 480" width="480pt" xmlns="http://www.w3.org/2000/svg" xmlns:xlink="http://www.w3.org/1999/xlink"><linearGradient id="a"><stop offset="0" stop-color="#006df0"/><stop offset="1" stop-color="#00e7f0"/></linearGradient><linearGradient id="b" gradientUnits="userSpaceOnUse" x1="232" x2="232" xlink:href="#a" y1="-6.616" y2="482.352"/><linearGradient id="c" gradientUnits="userSpaceOnUse" x1="248" x2="248" xlink:href="#a" y1="-6.616" y2="482.352"/><linearGradient id="d" gradientUnits="userSpaceOnUse" x1="240" x2="240" xlink:href="#a" y1="-6.616" y2="482.352"/><path d="m236.222656 72.089844c-28.285156-1.132813-55.808594 9.3125-76.230468 28.917968-20.417969 19.605469-31.972657 46.683594-31.992188 74.992188v12c0 11.046875 8.953125 20 20 20s20-8.953125 20-20v-12c-.007812-17.296875 6.988281-33.859375 19.386719-45.914062 12.402343-12.058594 29.15625-18.582032 46.445312-18.085938 33.265625 2.457031 59.714844 28.910156 62.167969 62.175781.921875 28.179688-16.804688 53.609375-43.558594 62.496094-16.726562 5.316406-28.179687 20.730469-28.441406 38.28125v33.046875c0 11.046875 8.953125 20 20 20s20-8.953125 20-20v-27.480469c.042969-3.324219 2.136719-6.277343 5.265625-7.414062 41.121094-15.851563 67.839844-55.847657 66.734375-99.90625-3.402344-53.863281-45.960938-96.996094-99.777344-101.109375zm27.304688 186.078125c-9.332032 3.480469-15.523438 12.390625-15.527344 22.351562v27.480469c0 2.210938-1.789062 4-4 4s-4-1.789062-4-4v-33.046875c.175781-10.695313 7.257812-20.042969 17.503906-23.113281 33.457032-11.09375 55.628906-42.875 54.496094-78.105469-2.605469-41.804687-35.929688-75.128906-77.734375-77.734375-.800781 0-1.523437 0-2.289063 0-44.175781.011719-79.976562 35.828125-79.976562 80v12c0 2.210938-1.789062 4-4 4s-4-1.789062-4-4v-12c.023438-23.953125 9.800781-46.867188 27.078125-63.453125 17.28125-16.589844 40.570313-25.429687 64.507813-24.476563 45.523437 3.476563 81.535156 39.960938 84.414062 85.53125.949219 37.292969-21.660156 71.152344-56.472656 84.566407zm0 0" fill="url(#b)"/><path d="m248 344c-17.671875 0-32 14.328125-32 32s14.328125 32 32 32 32-14.328125 32-32-14.328125-32-32-32zm0 48c-8.835938 0-16-7.164062-16-16s7.164062-16 16-16 16 7.164062 16 16-7.164062 16-16 16zm0 0" fill="url(#c)"/><path d="m240 0c-132.546875 0-240 107.453125-240 240s107.453125 240 240 240 240-107.453125 240-240c-.148438-132.484375-107.515625-239.851562-240-240zm0 464c-123.710938 0-224-100.289062-224-224s100.289062-224 224-224 224 100.289062 224 224c-.140625 123.652344-100.347656 223.859375-224 224zm0 0" fill="url(#d)"/></svg>