<svg height="477pt" viewBox="0 0 477 477.83752" width="477pt" xmlns="http://www.w3.org/2000/svg" xmlns:xlink="http://www.w3.org/1999/xlink"><linearGradient id="a"><stop offset="0" stop-color="#006df0"/><stop offset="1" stop-color="#00e7f0"/></linearGradient><linearGradient id="b" gradientUnits="userSpaceOnUse" x1="239.290407" x2="239.290407" xlink:href="#a" y1="-3.280353" y2="462.631647"/><linearGradient id="c" gradientUnits="userSpaceOnUse" x1="375.378407" x2="375.378407" xlink:href="#a" y1="-3.280353" y2="462.631647"/><path d="m438.324219 245.65625c-34.371094-34.316406-84.421875-47.730469-131.347657-35.199219-1.46875.390625-2.910156.878907-4.359374 1.320313l-51.335938-51.417969c-1.722656-1.742187-4.15625-2.585937-6.589844-2.289063l-40.625 4.746094 4.617188-40.800781c.277344-2.417969-.5625-4.835937-2.28125-6.558594-1.726563-1.710937-4.132813-2.554687-6.550782-2.296875l-40.953124 4.582032 4.511718-40.949219c.265625-2.414063-.582031-4.8125-2.296875-6.53125-1.722656-1.707031-4.121093-2.550781-6.535156-2.292969l-40.9375 4.503906 4.570313-40.945312c.269531-2.417969-.578126-4.824219-2.296876-6.542969l-22.640624-22.640625c-1.652344-1.652344-3.941407-2.5-6.269532-2.3203125l-73.523437 5.6796875c-3.929688.304687-7.054688 3.429687-7.359375 7.359375l-5.679688 73.519531c-.179687 2.332031.667969 4.621094 2.320313 6.273438l209.417969 209.328125c-.441407 1.457031-.929688 2.886718-1.320313 4.375-17.125 63.761718 14.011719 130.609375 73.839844 158.523437 59.824219 27.914063 131.058593 8.832031 168.917969-45.253906 37.859374-54.082031 31.410156-127.546875-15.292969-174.203125zm-416.777344-224.503906 63.015625-4.871094 17.320312 17.320312-5.257812 47.054688c-.265625 2.410156.570312 4.808594 2.28125 6.527344s4.109375 2.570312 6.519531 2.3125l40.953125-4.503906-4.511718 40.960937c-.257813 2.410156.59375 4.808594 2.3125 6.519531 1.71875 1.710938 4.125 2.550782 6.535156 2.277344l40.910156-4.582031-4.621094 40.847656c-.277344 2.421875.570313 4.835937 2.292969 6.558594 1.722656 1.738281 4.152344 2.582031 6.578125 2.28125l46.792969-5.464844 43.375 43.441406-.382813.191407c-.601562.273437-1.167968.601562-1.761718.878906-3.023438 1.425781-5.984376 2.960937-8.878907 4.609375-1.128906.640625-2.234375 1.320312-3.335937 1.992187-2.429688 1.472656-4.796875 3.019532-7.113282 4.648438-1.015624.710937-2.039062 1.40625-3.03125 2.144531-3.199218 2.398437-6.296874 4.839844-9.265624 7.488281-4.246094 3.6875-8.234376 7.667969-11.925782 11.910156-2.695312 3.007813-5.191406 6.152344-7.585937 9.367188-.734375.992188-1.429688 2.015625-2.144531 3.03125-1.648438 2.34375-3.214844 4.742188-4.703126 7.203125-.671874 1.09375-1.34375 2.191406-1.984374 3.3125-1.707032 2.984375-3.292969 6.039063-4.757813 9.160156-.234375.492188-.503906.972657-.730469 1.46875-.070312.144531-.152344.28125-.214844.425781l-201.550781-201.496093zm405.457031 405.449218c-38.386718 38.398438-97.78125 46.222657-144.804687 19.078126-47.023438-27.144532-69.949219-82.492188-55.894531-134.9375.761718-2.804688 1.601562-5.535157 2.488281-8.214844 5.089843-14.898438 13.144531-28.613282 23.671875-40.320313 3.1875-3.683593 6.636718-7.128906 10.328125-10.304687 4.605469-4.058594 9.523437-7.753906 14.707031-11.046875 7.933594-5.175781 16.46875-9.359375 25.421875-12.457031 2.710937-.894532 5.425781-1.726563 8.199219-2.480469 52.449218-14.074219 107.808594 8.84375 134.960937 55.867187 27.152344 47.027344 19.328125 106.425782-19.078125 144.816406zm0 0" fill="url(#b)"/><path d="m375.378906 326.984375c-26.511718 0-48 21.488281-48 48 0 26.507813 21.488282 48 48 48 26.507813 0 48-21.492187 48-48-.027344-26.5-21.5-47.972656-48-48zm0 80c-17.671875 0-32-14.328125-32-32 0-17.675781 14.328125-32 32-32s32 14.324219 32 32c0 17.671875-14.328125 32-32 32zm0 0" fill="url(#c)"/></svg>