<svg height="479pt" viewBox="-55 1 479 479.99946" width="479pt" xmlns="http://www.w3.org/2000/svg" xmlns:xlink="http://www.w3.org/1999/xlink"><linearGradient id="a" gradientUnits="userSpaceOnUse" x1="184.49973" x2="184.49973" y1="-18.704" y2="502.08"><stop offset="0" stop-color="#006df0"/><stop offset="1" stop-color="#00e7f0"/></linearGradient><g fill="url(#a)"><path d="m184.5 0c-101.574219.113281-183.886719 82.425781-184 184 0 99.199219 170.839844 285.535156 178.121094 293.425781 1.511718 1.640625 3.644531 2.574219 5.878906 2.574219s4.363281-.933594 5.878906-2.574219c7.28125-7.890625 178.121094-194.226562 178.121094-293.425781-.113281-101.574219-82.425781-183.886719-184-184zm0 460.054688c-30.398438-34.0625-168-192.925782-168-276.054688 0-92.785156 75.214844-168 168-168s168 75.214844 168 168c0 83.128906-137.601562 241.992188-168 276.054688zm0 0"/><path d="m184.5 112c-39.765625 0-72 32.234375-72 72s32.234375 72 72 72 72-32.234375 72-72c-.042969-39.746094-32.253906-71.957031-72-72zm0 128c-30.929688 0-56-25.070312-56-56s25.070312-56 56-56c30.925781 0 56 25.070312 56 56-.035156 30.914062-25.085938 55.964844-56 56zm0 0"/></g></svg>