<svg height="480pt" viewBox="-8 0 480 480.00007" width="480pt" xmlns="http://www.w3.org/2000/svg" xmlns:xlink="http://www.w3.org/1999/xlink"><linearGradient id="a" gradientUnits="userSpaceOnUse" x1="232.000035" x2="232.000035" y1="-3.679932" y2="498.832068"><stop offset="0" stop-color="#006df0"/><stop offset="1" stop-color="#00e7f0"/></linearGradient><path d="m464 136.457031v-.21875c0-.078125 0-.160156 0-.238281s-.054688-.183594-.054688-.28125c-.015624-.863281-.167968-1.71875-.457031-2.535156l-44.105469-117.664063c-3.53125-9.355469-12.5-15.5429685-22.503906-15.519531h-329.757812c-10.035156-.0234375-19.023438 6.195312-22.535156 15.59375l-44.074219 117.597656c-.289063.816406-.4414065 1.671875-.4570315 2.535156 0 .097657-.0546875.175782-.0546875.28125v.242188.214844.304687.328125c.335938 25.664063 16.132812 48.589844 40 58.039063v260.863281c0 13.253906 10.746094 24 24 24h336c13.253906 0 24-10.746094 24-24v-260.863281c23.832031-9.480469 39.59375-32.402344 39.910156-58.046875 0-.113282 0-.21875 0-.328125 0-.113281.089844-.203125.089844-.304688zm-404.457031-115.183593c1.179687-3.164063 4.199219-5.265626 7.578125-5.273438h329.757812c3.355469 0 6.359375 2.074219 7.554688 5.207031l40 106.792969h-424.882813zm275.792969 122.726562c-3.886719 23.113281-23.898438 40.042969-47.335938 40.042969s-43.449219-16.929688-47.335938-40.042969zm-112 0c-3.886719 23.113281-23.898438 40.042969-47.335938 40.042969s-43.449219-16.929688-47.335938-40.042969zm-206.679688 0h94.625c0 .167969-.050781.335938-.082031.503906-.433594 2.433594-1.0625 4.828125-1.878907 7.160156-.140624.394532-.28125.785157-.433593 1.175782-.847657 2.300781-1.878907 4.527344-3.078125 6.664062-.160156.28125-.34375.550782-.503906.800782-1.28125 2.199218-2.738282 4.289062-4.351563 6.253906l-.089844.105468c-1.636719 1.945313-3.421875 3.753907-5.34375 5.414063l-.589843.546875c-1.878907 1.570312-3.871094 2.996094-5.960938 4.261719l-1.039062.632812c-2.101563 1.207031-4.285157 2.253907-6.539063 3.136719-.390625.152344-.796875.289062-1.175781.433594-2.34375.851562-4.75 1.523437-7.199219 2-.320313.0625-.640625.09375-.960937.148437-2.65625.480469-5.351563.734375-8.054688.761719-23.429688.007812-43.4375-16.898438-47.34375-40zm135.34375 320v-200c0-4.417969 3.582031-8 8-8h144c4.417969 0 8 3.582031 8 8v200zm256-8c0 4.417969-3.582031 8-8 8h-72v-200c0-13.253906-10.746094-24-24-24h-144c-13.253906 0-24 10.746094-24 24v200h-72c-4.417969 0-8-3.582031-8-8v-256.496094c2.652344.332032 5.324219.496094 8 .496094 2.101562 0 4.203125-.109375 6.296875-.320312.695313-.0625 1.375-.199219 2.0625-.289063 1.359375-.183594 2.730469-.359375 4.066406-.621094.796875-.160156 1.597657-.378906 2.398438-.5625 1.191406-.285156 2.398437-.566406 3.550781-.917969.800781-.25 1.601562-.535156 2.402344-.800781 1.09375-.382812 2.191406-.800781 3.261718-1.199219.800782-.328124 1.601563-.695312 2.402344-1.066406 1.015625-.460937 2.03125-.933594 3.023438-1.453125.800781-.410156 1.597656-.847656 2.328125-1.289062.960937-.550781 1.894531-1.121094 2.824219-1.71875.742187-.480469 1.480468-.984375 2.207031-1.496094.894531-.632813 1.769531-1.289063 2.625-1.960937.703125-.550782 1.390625-1.105469 2.0625-1.679688.839843-.722656 1.648437-1.464844 2.449219-2.226562.632812-.597657 1.269531-1.199219 1.878906-1.824219.800781-.796875 1.519531-1.644531 2.265625-2.496094.558593-.636719 1.132812-1.269531 1.671875-1.925781.734375-.914063 1.414062-1.863282 2.101562-2.816406.472656-.65625.960938-1.289063 1.410156-1.960938.710938-1.070312 1.359376-2.191406 2.015626-3.3125.222656-.382812.472656-.742188.6875-1.132812 11.242187 20.40625 32.699218 33.082031 56 33.082031 23.300781 0 44.757812-12.675781 56-33.082031 11.242187 20.40625 32.699218 33.082031 56 33.082031 23.300781 0 44.757812-12.675781 56-33.082031.214843.390624.464843.75.6875 1.132812.65625 1.121094 1.304687 2.242188 2.015624 3.3125.449219.671875.9375 1.304688 1.410157 1.960938.6875.953124 1.367187 1.902343 2.101562 2.816406.535157.65625 1.113281 1.289062 1.671875 1.925781.746094.851563 1.480469 1.691406 2.265625 2.496094.609375.625 1.246094 1.226562 1.878907 1.824219.800781.800781 1.601562 1.503906 2.449218 2.226562.671875.574219 1.359375 1.128906 2.0625 1.679688.855469.671874 1.730469 1.328124 2.625 1.960937.726563.511719 1.464844 1.015625 2.207032 1.496094.929687.597656 1.863281 1.167969 2.824218 1.71875.800782.441406 1.542969.878906 2.328125 1.289062.992188.519531 2.007813.992188 3.023438 1.453125.800781.371094 1.601562.738282 2.402343 1.066406 1.070313.4375 2.167969.800782 3.261719 1.199219.800781.28125 1.601563.566407 2.402344.800781 1.167969.351563 2.398437.632813 3.550781.917969.800782.183594 1.601563.402344 2.398438.5625 1.335937.261719 2.707031.4375 4.066406.621094.6875.089844 1.367188.226563 2.0625.289063 2.097656.210937 4.203125.320312 6.3125.320312 2.675781 0 5.347656-.164062 8-.496094zm5.6875-273.984375c-4.441406 1.332031-9.050781 2-13.6875 1.984375-2.699219-.019531-5.394531-.261719-8.054688-.726562-.320312-.058594-.640624-.089844-.960937-.152344-2.449219-.476563-4.855469-1.144532-7.199219-2-.394531-.144532-.800781-.28125-1.175781-.433594-2.253906-.882812-4.4375-1.929688-6.539063-3.136719l-1.039062-.628906c-2.089844-1.269531-4.082031-2.695313-5.960938-4.265625l-.589843-.542969c-1.921875-1.664062-3.707031-3.472656-5.34375-5.417969l-.089844-.101562c-1.613281-1.96875-3.070313-4.058594-4.351563-6.257812-.160156-.28125-.34375-.550782-.503906-.800782-1.199218-2.136718-2.230468-4.363281-3.078125-6.664062-.15625-.386719-.300781-.78125-.433593-1.175782-.816407-2.332031-1.445313-4.726562-1.878907-7.160156 0-.167968-.046875-.335937-.082031-.503906h94.625c-2.96875 18.085938-16.058594 32.859375-33.65625 37.984375zm0 0" fill="url(#a)"/></svg>