<svg height="480pt" viewBox="0 0 480 480" width="480pt" xmlns="http://www.w3.org/2000/svg" xmlns:xlink="http://www.w3.org/1999/xlink"><linearGradient id="a"><stop offset="0" stop-color="#006df0"/><stop offset="1" stop-color="#00e7f0"/></linearGradient><linearGradient id="b" gradientUnits="userSpaceOnUse" x1="240" x2="240" xlink:href="#a" y1="-1.44" y2="494.904"/><linearGradient id="c" gradientUnits="userSpaceOnUse" x1="232" x2="232" xlink:href="#a" y1="-1.44" y2="494.904"/><path d="m240 0c-132.335938 0-240 96.894531-240 216 0 83.039062 53.199219 158.910156 136 194.679688v61.320312c0 3.234375 1.949219 6.152344 4.9375 7.390625s6.429688.550781 8.71875-1.734375l48.917969-48.921875c13.699219 2.1875 27.554687 3.28125 41.425781 3.265625 132.335938 0 240-96.894531 240-216s-107.664062-216-240-216zm0 416c-14.332031.019531-28.636719-1.222656-42.753906-3.710938-2.574219-.460937-5.210938.367188-7.0625 2.214844l-38.183594 38.183594v-47.328125c0-3.253906-1.972656-6.179687-4.984375-7.40625-79.589844-32.351563-131.015625-103.792969-131.015625-181.953125 0-110.28125 100.488281-200 224-200s224 89.71875 224 200-100.488281 200-224 200zm0 0" fill="url(#b)"/><path d="m389.800781 160.3125-107.472656 30.703125-60.671875-60.671875c-2.925781-2.921875-7.597656-3.136719-10.777344-.488281l-144 120c-2.863281 2.390625-3.695312 6.441406-2.003906 9.765625 1.6875 3.324218 5.449219 5.042968 9.070312 4.140625l123.597657-30.90625 60.800781 60.800781c3.054688 3.050781 7.980469 3.128906 11.128906.175781l128-120c2.683594-2.527343 3.292969-6.566406 1.472656-9.773437-1.820312-3.207032-5.597656-4.753906-9.144531-3.746094zm-125.601562 116.550781-58.519531-58.519531c-1.503907-1.507812-3.550782-2.351562-5.679688-2.34375-.65625 0-1.308594.082031-1.945312.238281l-94.054688 23.523438 111.503906-92.9375 58.839844 58.832031c2.054688 2.054688 5.0625 2.832031 7.855469 2.03125l80.199219-22.886719zm0 0" fill="url(#c)"/></svg>