<svg height="478.51355pt" viewBox="0 0 478.51355 478.51355" width="478.51355pt" xmlns="http://www.w3.org/2000/svg" xmlns:xlink="http://www.w3.org/1999/xlink"><linearGradient id="a"><stop offset="0" stop-color="#006df0"/><stop offset="1" stop-color="#00e7f0"/></linearGradient><linearGradient id="b" gradientUnits="userSpaceOnUse" x1="216.064775" x2="216.064775" xlink:href="#a" y1="-8.575225" y2="488.200775"/><linearGradient id="c" gradientUnits="userSpaceOnUse" x1="264.056775" x2="264.056775" xlink:href="#a" y1="-8.575225" y2="488.200775"/><linearGradient id="d" gradientUnits="userSpaceOnUse" x1="240.048775" x2="240.048775" xlink:href="#a" y1="-8.575225" y2="488.200775"/><linearGradient id="e" gradientUnits="userSpaceOnUse" x1="192.080775" x2="192.080775" xlink:href="#a" y1="-8.575225" y2="488.200775"/><linearGradient id="f" gradientUnits="userSpaceOnUse" x1="160.064775" x2="160.064775" xlink:href="#a" y1="-8.575225" y2="488.200775"/><linearGradient id="g" gradientUnits="userSpaceOnUse" x1="239.256775" x2="239.256775" xlink:href="#a" y1="-8.575225" y2="488.200775"/><path d="m277.730469 294.847656c-.265625-1.320312-.671875-2.597656-.976563-3.910156-4.113281-17.789062-12.269531-34.390625-23.839844-48.511719-2.507812-3.058593-5.175781-5.992187-8-8.800781-16.25-16.300781-36.875-27.539062-59.378906-32.351562-.621094-.136719-1.230468-.335938-1.855468-.464844-.328126-.0625-.664063-.085938-.992188-.144532-7.457031-1.4375-15.035156-2.179687-22.628906-2.207031-4.421875 0-8 3.582031-8 8s3.578125 8 8 8c7.257812.007813 14.496094.773438 21.597656 2.28125 19.691406 4.125 37.746094 13.90625 51.953125 28.152344 2.449219 2.445313 4.757813 4.996094 6.925781 7.644531 10.078125 12.308594 17.167969 26.777344 20.722656 42.28125 1.824219 7.75 2.761719 15.679688 2.800782 23.640625 0 4.417969 3.578125 8 8 8 1.046875 0 2.082031-.210937 3.046875-.617187 2.992187-1.230469 4.945312-4.148438 4.953125-7.382813-.023438-7.902343-.804688-15.785156-2.335938-23.535156zm0 0" fill="url(#b)"/><path d="m160.058594 102.457031c-4.421875 0-8 3.582031-8 8s3.578125 8 8 8c110.472656-.042969 200.042968 89.523438 200 200 0 4.417969 3.578125 8 8 8 4.417968 0 8-3.582031 8-8 .039062-119.308593-96.691406-216.039062-216-216zm0 0" fill="url(#c)"/><path d="m160.058594 150.457031c-4.421875 0-8 3.582031-8 8s3.578125 8 8 8c83.960937-.035156 152.035156 68.039063 152 152 0 4.417969 3.578125 8 8 8 4.417968 0 8-3.582031 8-8 .035156-92.796875-75.203125-168.035156-168-168zm0 0" fill="url(#d)"/><path d="m160.058594 246.457031c-4.421875 0-8 3.582031-8 8s3.578125 8 8 8c30.902344.058594 55.941406 25.09375 56 56 0 4.417969 3.578125 8 8 8 4.417968 0 8-3.582031 8-8-.054688-39.742187-32.257813-71.949219-72-72zm0 0" fill="url(#e)"/><path d="m148.753906 307.136719c-6.25 6.246093-6.25 16.378906-.003906 22.628906 6.25 6.25 16.378906 6.25 22.628906 0s6.246094-16.382813-.003906-22.628906c-6.246094-6.246094-16.375-6.246094-22.621094 0zm0 0" fill="url(#f)"/><path d="m408.960938 69.554688c-93.84375-93.027344-245.230469-92.695313-338.667969.738281-93.433594 93.4375-93.765625 244.824219-.738281 338.667969 93.84375 93.027343 245.230468 92.695312 338.664062-.742188 93.4375-93.433594 93.769531-244.820312.742188-338.664062zm-11.304688 328.101562c-87.480469 87.484375-229.316406 87.484375-316.800781 0-87.480469-87.480469-87.480469-229.316406 0-316.800781 87.484375-87.480469 229.320312-87.480469 316.800781 0 87.484375 87.484375 87.484375 229.320312 0 316.800781zm0 0" fill="url(#g)"/></svg>