<svg height="489pt" viewBox="-5 0 489 489.31778" width="489pt" xmlns="http://www.w3.org/2000/svg" xmlns:xlink="http://www.w3.org/1999/xlink"><linearGradient id="a"><stop offset="0" stop-color="#006df0"/><stop offset="1" stop-color="#00e7f0"/></linearGradient><linearGradient id="b" gradientUnits="userSpaceOnUse" x1="186.151467" x2="186.151467" xlink:href="#a" y1="-16.306217" y2="529.677783"/><linearGradient id="c" gradientUnits="userSpaceOnUse" x1="148.879467" x2="148.879467" xlink:href="#a" y1="-16.306217" y2="529.677783"/><linearGradient id="d" gradientUnits="userSpaceOnUse" x1="239.879467" x2="239.879467" xlink:href="#a" y1="-16.306217" y2="529.677783"/><path d="m171.65625 182.828125c-29.871094 8.007813-47.597656 38.714844-39.59375 68.589844 8.007812 29.871093 38.710938 47.597656 68.585938 39.59375 29.871093-8.003907 47.601562-38.707031 39.597656-68.582031-8.039063-29.847657-38.71875-47.5625-68.589844-39.601563zm53.136719 43.746094c4.433593 16.550781-2.167969 34.089843-16.414063 43.609375-14.25 9.519531-32.980468 8.910156-46.574218-1.523438-13.59375-10.429687-19.035157-28.363281-13.527344-44.589844 5.507812-16.226562 20.738281-27.144531 37.875-27.144531 18.097656.019531 33.9375 12.171875 38.640625 29.648438zm0 0" fill="url(#b)"/><path d="m202.953125 83.324219c-1.144531-4.265625-5.535156-6.800781-9.800781-5.65625l-92.703125 24.859375c-3.878907 1.035156-6.386719 4.789062-5.867188 8.765625.523438 3.980469 3.914063 6.957031 7.929688 6.960937.703125 0 1.402343-.09375 2.078125-.273437l92.761718-24.847657c4.25-1.167968 6.753907-5.554687 5.601563-9.808593zm0 0" fill="url(#c)"/><path d="m472.40625 77.199219c-6.054688-8.726563-15.355469-14.660157-25.824219-16.464844l-141.871093-25.046875c-7.644532-1.304688-15.507813-.367188-22.632813 2.703125l-2.398437-8.800781c-5.808594-21.269532-27.671876-33.882813-48.992188-28.265625l-200.929688 53.875c-10.246093 2.742187-18.976562 9.453125-24.269531 18.644531-5.296875 9.191406-6.714843 20.113281-3.945312 30.355469l95.199219 355.429687c4.664062 17.484375 20.484374 29.65625 38.578124 29.6875 3.511719-.007812 7.007813-.472656 10.398438-1.382812l93.761719-25.121094 132.054687 23.351562c2.304688.40625 4.636719.609376 6.976563.609376 19.394531-.054688 35.960937-13.996094 39.328125-33.09375l61.113281-346.625c1.90625-10.429688-.449219-21.183594-6.546875-29.855469zm-349.054688 392.871093c-5.519531-3.171874-9.535156-8.421874-11.152343-14.578124l-95.214844-355.460938c-1.65625-6.140625-.804687-12.6875 2.367187-18.199219 3.175782-5.507812 8.410157-9.53125 14.550782-11.179687l200.953125-53.847656c12.808593-3.351563 25.925781 4.230468 29.414062 17l95.203125 355.425781c1.660156 6.148437.804688 12.703125-2.378906 18.21875-3.179688 5.519531-8.429688 9.539062-14.582031 11.179687l-14.488281-54.070312c-12.578126-46.941406-60.828126-74.796875-107.769532-62.226563l-30.902344 8.28125c-46.910156 12.628907-74.746093 60.847657-62.222656 107.785157l14.503906 54.078124c-6.171874 1.671876-12.753906.804688-18.28125-2.40625zm33.703126-1.738281-14.496094-54.078125c-10.234375-38.402344 12.535156-77.847656 50.914062-88.183594l30.910156-8.289062c6.117188-1.644531 12.421876-2.476562 18.753907-2.480469 32.535156.101563 60.972656 21.980469 69.414062 53.402344l14.480469 54.0625zm306.183593-364.101562-61.085937 346.679687c-2.285156 13.054688-14.722656 21.789063-27.777344 19.503906l-98.34375-17.382812 70.578125-18.9375c10.265625-2.722656 19.027344-9.417969 24.34375-18.613281 5.320313-9.195313 6.757813-20.128907 4-30.386719l-88.65625-331.039062c4.777344-2.621094 10.300781-3.542969 15.671875-2.617188l141.839844 25.046875c13.027344 2.296875 21.726562 14.71875 19.429687 27.746094zm0 0" fill="url(#d)"/></svg>