<svg height="474pt" viewBox="-16 0 474 474.98365" width="474pt" xmlns="http://www.w3.org/2000/svg" xmlns:xlink="http://www.w3.org/1999/xlink"><linearGradient id="a"><stop offset="0" stop-color="#006df0"/><stop offset="1" stop-color="#00e7f0"/></linearGradient><linearGradient id="b" gradientUnits="userSpaceOnUse" x1="251.72711" x2="251.72711" xlink:href="#a" y1="-7.976348" y2="515.863652"/><linearGradient id="c" gradientUnits="userSpaceOnUse" x1="75.99111" x2="75.99111" xlink:href="#a" y1="-7.976348" y2="515.863652"/><linearGradient id="d" gradientUnits="userSpaceOnUse" x1="384.11111" x2="384.11111" xlink:href="#a" y1="-7.976348" y2="515.863652"/><path d="m436.816406 198.144531c6.515625-8.082031 7.097656-19.441406 1.441406-28.144531-5.660156-8.707031-16.273437-12.785156-26.308593-10.113281l-104.726563 28c-3.355468.90625-6.910156-.457031-8.800781-3.375l-59.015625-90.886719c-5.660156-8.722656-16.296875-12.804688-26.339844-10.113281-10.042968 2.691406-17.210937 11.542969-17.753906 21.929687l-5.671875 108.261719c-.183594 3.464844-2.570313 6.414063-5.921875 7.3125l-104.71875 28.0625c-10.054688 2.683594-17.234375 11.539063-17.78125 21.929687-.546875 10.390626 5.664062 19.949219 15.378906 23.671876l101.226563 38.808593c3.234375 1.242188 5.300781 4.425781 5.117187 7.886719l-5.703125 108.296875c-.660156 10.414063 5.585938 20.03125 15.367188 23.664063 2.808593 1.085937 5.792969 1.644531 8.800781 1.648437 7.199219-.019531 13.992188-3.3125 18.464844-8.953125l68.246094-84.253906c2.191406-2.679688 5.855468-3.648438 9.082031-2.402344l101.214843 38.847656c9.707032 3.722656 20.703126.773438 27.246094-7.300781 6.542969-8.078125 7.140625-19.449219 1.484375-28.171875l-59.050781-90.957031c-1.886719-2.910157-1.683594-6.699219.496094-9.394531zm-82.136718 102.359375 59.046874 90.9375c1.890626 2.910156 1.6875 6.707032-.5 9.398438-2.1875 2.695312-5.863281 3.667968-9.097656 2.414062l-101.195312-38.847656c-9.703125-3.765625-20.734375-.8125-27.253906 7.304688l-68.222657 84.25c-2.183593 2.695312-5.851562 3.679687-9.089843 2.433593-3.234376-1.242187-5.304688-4.429687-5.121094-7.890625l5.671875-108.265625c.570312-10.390625-5.644531-19.957031-15.367188-23.664062l-101.207031-38.847657c-3.238281-1.238281-5.308594-4.425781-5.128906-7.890624.183594-3.460938 2.578125-6.414063 5.929687-7.308594l104.71875-28.0625c10.058594-2.667969 17.238281-11.53125 17.761719-21.921875l5.664062-108.253907c.101563-3.492187 2.523438-6.480468 5.917969-7.304687.730469-.191406 1.484375-.289063 2.238281-.289063 2.675782-.03125 5.167969 1.367188 6.539063 3.664063l59.054687 90.921875c5.652344 8.730469 16.292969 12.816406 26.335938 10.109375l104.71875-28.0625c3.363281-.914063 6.925781.449219 8.820312 3.375 1.890626 2.921875 1.671876 6.734375-.539062 9.425781l-68.222656 84.207032c-6.558594 8.070312-7.15625 19.457031-1.472656 28.167968zm0 0" fill="url(#b)"/><path d="m92.65625 130.449219 33.046875 12.636719c6.476563 2.519531 13.835937.566406 18.214844-4.828126 4.378906-5.394531 4.777343-12.996093.984375-18.816406l-19.289063-29.683594 22.242188-27.46875c4.359375-5.386718 4.753906-12.96875.980469-18.78125-3.777344-5.8125-10.863282-8.53125-17.558594-6.738281l-34.191406 9.140625-19.277344-29.6875c-3.785156-5.789062-10.859375-8.488281-17.539063-6.695312-6.679687 1.789062-11.453125 7.671875-11.832031 14.578125l-1.847656 35.351562-34.222656 9.160157c-6.703126 1.785156-11.488282 7.691406-11.851563 14.617187-.367187 6.925781 3.773437 13.300781 10.25 15.78125l33.050781 12.6875-1.855468 35.34375c-.445313 6.941406 3.71875 13.355469 10.238281 15.777344 1.863281.707031 3.84375 1.070312 5.839843 1.0625 4.800782-.011719 9.335938-2.210938 12.320313-5.976563zm-34.714844 17.4375 1.859375-35.34375c.375-6.925781-3.765625-13.304688-10.25-15.773438l-33.039062-12.691406 34.191406-9.160156c6.703125-1.78125 11.484375-7.6875 11.832031-14.613281l1.792969-35.441407.054687.082031 19.257813 29.6875c3.773437 5.808594 10.855469 8.53125 17.550781 6.742188l34.222656-9.167969-22.269531 27.511719c-4.378906 5.382812-4.777343 12.976562-.984375 18.785156l19.277344 29.679688-33.046875-12.679688c-6.46875-2.5-13.816406-.53125-18.167969 4.871094zm0 0" fill="url(#c)"/><path d="m350.34375 59.566406-17.320312 26.671875c-1.902344 2.914063-1.707032 6.71875.484374 9.417969 2.191407 2.703125 5.875 3.679688 9.117188 2.414062l29.695312-11.398437 20 24.710937c2.179688 2.695313 5.847657 3.679688 9.085938 2.4375 3.238281-1.242187 5.304688-4.429687 5.121094-7.894531l-1.664063-31.757812 29.695313-11.390625c3.238281-1.242188 5.308594-4.429688 5.128906-7.890625-.183594-3.464844-2.578125-6.417969-5.929688-7.3125l-30.71875-8.230469-1.664062-31.769531c-.183594-3.457031-2.574219-6.40625-5.917969-7.300781-3.347656-.898438-6.890625.460937-8.777343 3.367187l-17.335938 26.648437-30.730469-8.195312c-3.34375-.890625-6.878906.46875-8.765625 3.371094-1.886718 2.902344-1.691406 6.6875.480469 9.382812zm20.496094-12.285156c3.351562.90625 6.910156-.457031 8.800781-3.371094l7.078125-10.902344.679688 12.984376c.183593 3.460937 2.574218 6.40625 5.921874 7.304687l12.550782 3.367187-12.136719 4.65625c-3.234375 1.242188-5.300781 4.425782-5.121094 7.886719l.683594 12.96875-8.179687-10.089843c-2.1875-2.679688-5.855469-3.648438-9.085938-2.398438l-12.175781 4.601562 7.070312-10.890624c1.890625-2.90625 1.691407-6.695313-.488281-9.390626l-8.183594-10.121093zm0 0" fill="url(#d)"/></svg>