<svg height="480pt" viewBox="-16 0 480 480" width="480pt" xmlns="http://www.w3.org/2000/svg" xmlns:xlink="http://www.w3.org/1999/xlink"><linearGradient id="a"><stop offset="0" stop-color="#006df0"/><stop offset="1" stop-color="#00e7f0"/></linearGradient><linearGradient id="b" gradientUnits="userSpaceOnUse" x1="224" x2="224" xlink:href="#a" y1="-29.784" y2="506.904"/><linearGradient id="c" gradientUnits="userSpaceOnUse" x1="254.984" x2="254.984" xlink:href="#a" y1="-29.784" y2="506.904"/><path d="m440 0h-384c-30.914062.0351562-55.9648438 25.085938-56 56v368c.0351562 30.914062 25.085938 55.964844 56 56h384c4.417969 0 8-3.582031 8-8v-464c0-4.417969-3.582031-8-8-8zm-424 384.839844v-328.839844c.027344-22.082031 17.917969-39.972656 40-40h376v352h-376c-14.851562-.070312-29.105469 5.84375-39.550781 16.398438zm416 79.160156h-376c-22.082031-.027344-39.972656-17.917969-40-40 .039062-22.074219 17.925781-39.960938 40-40h376zm0 0" fill="url(#b)"/><path d="m198.871094 307.40625 21.296875 11.617188c2.386719 1.304687 5.277343 1.304687 7.664062 0l21.296875-11.617188c43.703125-23.824219 70.890625-69.628906 70.871094-119.40625v-68c0-2.925781-1.597656-5.621094-4.167969-7.023438l-88-48c-2.386719-1.304687-5.277343-1.304687-7.664062 0l-88 48c-2.570313 1.402344-4.167969 4.097657-4.167969 7.023438v68c-.019531 49.777344 27.167969 95.582031 70.871094 119.40625zm-54.871094-182.652344 80-43.640625 80 43.640625v63.246094c.015625 43.921875-23.972656 84.339844-62.535156 105.359375l-17.464844 9.527344-17.464844-9.527344c-38.5625-21.019531-62.550781-61.4375-62.535156-105.359375zm0 0" fill="url(#b)"/><path d="m229.976562 280.289062c1.335938 0 2.652344-.335937 3.824219-.976562 33.425781-18.214844 54.21875-53.246094 54.199219-91.3125 0-4.417969-3.582031-8-8-8s-8 3.582031-8 8c.007812 32.203125-17.582031 61.835938-45.855469 77.246094-3.210937 1.753906-4.828125 5.457031-3.921875 9.003906.902344 3.542969 4.09375 6.023438 7.753906 6.023438zm0 0" fill="url(#c)"/></svg>