<svg height="480pt" viewBox="0 0 480.10354 480" width="480pt" xmlns="http://www.w3.org/2000/svg" xmlns:xlink="http://www.w3.org/1999/xlink"><linearGradient id="a"><stop offset="0" stop-color="#006df0"/><stop offset="1" stop-color="#00e7f0"/></linearGradient><linearGradient id="b" gradientUnits="userSpaceOnUse" x1="183.327407" x2="183.327407" xlink:href="#a" y1="-7.487766" y2="483.240234"/><linearGradient id="c" gradientUnits="userSpaceOnUse" x1="239.775407" x2="239.775407" xlink:href="#a" y1="-7.487766" y2="483.240234"/><path d="m290.808594 75.839844c-59.347656-59.289063-155.515625-59.257813-214.824219.066406-59.3125 59.328125-59.3125 155.5 0 214.828125 59.308594 59.324219 155.476563 59.355469 214.824219.066406 59.269531-59.398437 59.269531-155.5625 0-214.960937zm-203.648438 203.648437c-53.109375-53.113281-53.109375-139.222656 0-192.332031 53.113282-53.109375 139.222656-53.109375 192.332032 0 53.113281 53.109375 53.113281 139.21875.003906 192.332031-53.144532 53.035157-139.191406 53.035157-192.335938 0zm0 0" fill="url(#b)"/><path d="m468.511719 411.9375-104.167969-104.167969 5.65625-5.65625c3.121094-3.125 3.121094-8.1875 0-11.3125l-23.199219-23.199219c41.375-80.425781 18.007813-179-55.066406-232.296874-73.070313-53.292969-174.074219-45.421876-238.007813 18.550781-63.933593 63.972656-71.746093 164.980469-18.40625 238.023437 53.335938 73.039063 151.929688 96.347656 232.328126 54.921875l23.199218 23.199219c3.125 3.125 8.1875 3.125 11.3125 0l5.65625-5.65625 104.128906 104.160156c15.640626 15.503906 40.871094 15.449219 56.441407-.125 15.574219-15.570312 15.628906-40.800781.125-56.441406zm-403.984375-109.824219c-65.671875-65.625-65.699219-172.066406-.058594-237.71875 65.636719-65.65625 172.078125-65.65625 237.71875 0 65.640625 65.652344 65.613281 172.09375-.058594 237.71875-2.742187 2.746094-5.574218 5.386719-8.496094 7.925781-8.746093 7.632813-18.261718 14.335938-28.394531 20-65.65625 36.433594-147.496093 25.046876-200.710937-27.925781zm217.519531 36.503907c.351563-.226563.6875-.472657 1.03125-.695313.96875-.625 1.914063-1.296875 2.867187-1.9375 2.285157-1.542969 4.542969-3.121094 6.75-4.761719 1.066407-.789062 2.132813-1.585937 3.199219-2.398437 2.132813-1.664063 4.246094-3.382813 6.335938-5.152344.914062-.800781 1.839843-1.527344 2.738281-2.320313 2.902344-2.550781 5.742188-5.175781 8.488281-7.917968 2.742188-2.746094 5.367188-5.601563 7.917969-8.488282.800781-.898437 1.550781-1.824218 2.320312-2.730468 1.769532-2.078125 3.488282-4.191406 5.152344-6.34375.816406-1.066406 1.617188-2.132813 2.398438-3.199219 1.660156-2.222656 3.261718-4.492187 4.800781-6.800781.632813-.933594 1.289063-1.855469 1.898437-2.808594.230469-.351562.476563-.6875.710938-1.046875l14.398438 14.402344-56.589844 56.605469zm175.152344 118.574218c-9.496094 9.070313-24.445313 9.070313-33.945313 0l-104.167968-104.167968 33.945312-33.941407 104.167969 104.175781c9.375 9.371094 9.375 24.570313 0 33.941407zm0 0" fill="url(#c)"/></svg>