<svg height="480pt" viewBox="0 0 480 480" width="480pt" xmlns="http://www.w3.org/2000/svg" xmlns:xlink="http://www.w3.org/1999/xlink"><linearGradient id="a" gradientUnits="userSpaceOnUse" x1="240" x2="240" y1="-30.304797" y2="497.655203"><stop offset="0" stop-color="#006df0"/><stop offset="1" stop-color="#00e7f0"/></linearGradient><path d="m480 239.953125c0-6.742187-.265625-13.4375-.800781-20.089844-.734375-8.335937-1.902344-16.625-3.503907-24.839843-6.996093-37.375-22.886718-72.515626-46.328124-102.457032-27.742188-35.777344-65.082032-62.929687-107.671876-78.289062-39.441406-14.2070315-81.902343-17.890625-123.199218-10.695313-13.679688 2.371094-27.121094 5.949219-40.167969 10.6875-94.984375 34.445313-158.265625 124.644531-158.328125 225.683594 0 2.742187.0898438 5.46875.246094 7.839844v.335937c1.375 45.164063 15.578125 89.007813 40.953125 126.398438 31.511719 46.453125 78.261719 80.4375 132.167969 96.078125l.542968.136719c43.183594 12.285156 88.933594 12.285156 132.113282 0 .191406-.035157.382812-.085938.578124-.144532 13.367188-3.859375 26.371094-8.878906 38.863282-15.007812 37.613281-18.464844 69.773437-46.40625 93.320312-81.070313 25.390625-37.382812 39.597656-81.230469 40.949219-126.398437.175781-2.699219.265625-5.425782.265625-8.167969zm-68.726562 144.183594c-2.667969 3.167969-5.410157 6.253906-8.226563 9.261719-1.429687 1.519531-2.878906 3.007812-4.34375 4.488281-2.902344 2.914062-5.886719 5.71875-8.941406 8.464843-1.394531 1.261719-2.761719 2.550782-4.1875 3.769532-4.238281 3.621094-8.582031 7.109375-13.0625 10.398437-.273438.199219-.527344.421875-.800781.625-4.75 3.460938-9.671876 6.6875-14.679688 9.757813-1.597656.976562-3.199219 1.855468-4.800781 2.792968-3.535157 2.054688-7.117188 4-10.765625 5.894532-1.890625.960937-3.789063 1.890625-5.703125 2.792968-3.632813 1.71875-7.3125 3.328126-11.042969 4.855469-1.824219.746094-3.628906 1.519531-5.472656 2.226563-.796875.285156-1.597656.503906-2.324219.796875l23.390625-72.222657h75.925781c-.453125.585938-.863281 1.207032-1.335937 1.792969-1.175782 1.464844-2.414063 2.871094-3.628906 4.304688zm16.46875-22.105469h-89.15625l-37.992188-52.289062 29.445312-90.640626 61.496094-20 71.960938 52.304688c-1.871094 39.398438-14.210938 77.585938-35.753906 110.625zm-272.359376 85.257812c-3.757812-1.546874-7.488281-3.203124-11.160156-4.914062-1.886718-.894531-3.757812-1.808594-5.597656-2.75-3.679688-1.882812-7.300781-3.867188-10.863281-5.953125-1.601563-.914063-3.203125-1.785156-4.738281-2.738281-5.023438-3.085938-9.953126-6.320313-14.710938-9.78125-.242188-.175782-.457031-.371094-.695312-.546875-4.519532-3.316407-8.898438-6.832031-13.160157-10.476563-1.425781-1.226562-2.792969-2.515625-4.191406-3.769531-3.050781-2.746094-6.035156-5.550781-8.929687-8.457031-1.484376-1.488282-2.941407-2.992188-4.375-4.519532-2.800782-2.976562-5.511719-6.046874-8.152344-9.175781-1.242188-1.472656-2.511719-2.910156-3.71875-4.414062-.457032-.570313-.859375-1.1875-1.3125-1.761719h75.949218l23.394532 72.222656c-.800782-.277344-1.601563-.503906-2.34375-.796875-1.832032-.707031-3.601563-1.441406-5.394532-2.167969zm-13.96875-85.257812h-89.15625c-21.523437-33.039062-33.859374-71.214844-35.746093-110.601562l71.953125-52.277344 61.496094 20 29.445312 90.640625zm-124.375-143.046875c.375-4.089844.90625-8.136719 1.496094-12.167969.25-1.65625.417969-3.328125.695313-4.976562.960937-5.640625 2.113281-11.199219 3.496093-16.753906.242188-.957032.570313-1.894532.800782-2.855469 1.199218-4.550781 2.527344-9.0625 4-13.527344.625-1.863281 1.34375-3.695313 2.015625-5.542969 1.289062-3.519531 2.632812-7.023437 4.105469-10.480468.847656-2.007813 1.75-4 2.671874-5.976563 1.503907-3.273437 3.089844-6.511719 4.757813-9.710937 1.019531-1.945313 2.035156-3.898438 3.113281-5.816407 1.839844-3.289062 3.808594-6.519531 5.832032-9.738281 1.066406-1.695312 2.082031-3.414062 3.199218-5.085938.304688-.457031.65625-.894531.96875-1.351562l23.410156 72.214844-61.265624 44.566406c.070312-2.125.121093-4.253906.257812-6.398438.132812-2.144531.246094-4.261718.445312-6.398437zm177.050782 84.167969-28.378906-87.34375 74.289062-53.96875 74.289062 53.96875-28.378906 87.34375zm-13.289063-279.199219c1.597657-.441406 3.199219-.800781 4.800781-1.203125 4.328126-1.070312 8.679688-2.039062 13.054688-2.855469 1.71875-.320312 3.4375-.621093 5.160156-.902343 4.550782-.738282 9.121094-1.3125 13.695313-1.769532 1.433593-.144531 2.855469-.335937 4.289062-.449218 12.074219-.964844 24.210938-.964844 36.289063 0 1.414062.113281 2.820312.304687 4.238281.441406 4.609375.457031 9.199219 1.039062 13.769531 1.785156 1.703125.269531 3.40625.574219 5.101563.886719 4.410156.800781 8.800781 1.792969 13.136719 2.878906 1.601562.402344 3.199218.753906 4.800781 1.1875.757812.207031 1.496093.484375 2.246093.703125l-61.382812 44.605469-61.40625-44.597657c.75-.21875 1.476562-.496093 2.207031-.710937zm244.941407 91.039063c.3125.453124.664062.894531.96875 1.351562 1.128906 1.6875 2.152343 3.421875 3.199218 5.136719 2 3.199219 4 6.398437 5.792969 9.671875 1.089844 1.933594 2.113281 3.902344 3.136719 5.871094 1.652344 3.199218 3.230468 6.414062 4.734375 9.648437.921875 2 1.832031 4 2.699219 6.023437 1.453124 3.441407 2.789062 6.917969 4.070312 10.398438.679688 1.867188 1.410156 3.714844 2.039062 5.601562 1.488282 4.433594 2.800782 8.910157 4 13.441407.257813.984375.59375 1.949219.800782 2.941406 1.382812 5.511719 2.535156 11.097656 3.496094 16.730469.28125 1.65625.449218 3.335937.695312 5 .59375 4 1.128906 8.070312 1.496094 12.152344.199218 2.132812.3125 4.277343.449218 6.398437.136719 2.121094.183594 4.238281.253907 6.398437l-61.175781-44.542968zm-11.695313-15.792969-27.429687 84.695312-61.519532 20-77.097656-56v-64.664062l72.089844-52.375c36.824218 14.0625 69.253906 37.652343 93.980468 68.351562zm-254.136719-68.335938 72.089844 52.367188v64.648437l-77.097656 56-61.519532-20-27.453124-84.671875c24.722656-30.699219 57.15625-54.285156 93.980468-68.34375zm21.929688 425.34375-27.441406-84.792969 37.953124-52.261718h95.296876l37.953124 52.261718-27.464843 84.800782c-38.105469 10.121094-78.191407 10.117187-116.296875-.007813zm0 0" fill="url(#a)"/></svg>