<svg height="480pt" viewBox="0 0 480.1332 480" width="480pt" xmlns="http://www.w3.org/2000/svg" xmlns:xlink="http://www.w3.org/1999/xlink"><linearGradient id="a"><stop offset="0" stop-color="#006df0"/><stop offset="1" stop-color="#00e7f0"/></linearGradient><linearGradient id="b" gradientUnits="userSpaceOnUse" x1="240" x2="240" xlink:href="#a" y1="-.8614" y2="484.5066"/><linearGradient id="c" gradientUnits="userSpaceOnUse" x1="192" x2="192" xlink:href="#a" y1="-.8614" y2="484.5066"/><linearGradient id="d" gradientUnits="userSpaceOnUse" x1="108" x2="108" xlink:href="#a" y1="-.8614" y2="484.5066"/><linearGradient id="e" gradientUnits="userSpaceOnUse" x1="46.504" x2="46.504" xlink:href="#a" y1="-.8614" y2="484.5066"/><linearGradient id="f" gradientUnits="userSpaceOnUse" x1="24" x2="24" xlink:href="#a" y1="-.8614" y2="484.5066"/><linearGradient id="g" gradientUnits="userSpaceOnUse" x1="337.496" x2="337.496" xlink:href="#a" y1="-.8614" y2="484.5066"/><linearGradient id="h" gradientUnits="userSpaceOnUse" x1="276" x2="276" xlink:href="#a" y1="-.8614" y2="484.5066"/><path d="m421.480469 337.316406c6.753906-33.527344-.210938-68.359375-19.335938-96.707031-19.128906-28.351563-48.816406-47.851563-82.433593-54.144531-2.386719-55.507813-40.335938-103.132813-93.914063-117.847656-53.578125-14.714844-110.527344 6.839843-140.9375 53.34375-30.40625 46.503906-27.3125 107.316406 7.652344 150.496093-35.402344 17.449219-52.71875 58.164063-40.734375 95.769531-30.019532 2.273438-52.867188 27.871094-51.730469 57.953126 1.136719 30.082031 25.851563 53.882812 55.953125 53.886718h352c37.191406.070313 68.316406-28.203125 71.8125-65.230468 3.5-37.027344-21.785156-70.625-58.332031-77.519532zm-229.480469-257.25c58.820312.066406 107.59375 45.574219 111.734375 104.25-.511719 0-1.015625 0-1.527344 0-2.078125-.105468-4.160156-.21875-6.207031-.21875-.503906 0-.992188.058594-1.496094.066406-2.527344 0-5.015625.140626-7.503906.308594-.878906.058594-1.761719.097656-2.625.179688-3.199219.269531-6.3125.671875-9.414062 1.175781l-.546876.078125c-27.308593 4.523438-52.382812 17.878906-71.375 38.023438l-.0625.074218c-2.273437 2.398438-4.464843 4.902344-6.550781 7.496094-.25.300781-.472656.621094-.722656.933594-1.847656 2.34375-3.65625 4.738281-5.34375 7.199218-.449219.65625-.847656 1.347657-1.28125 2.011719-1.445313 2.199219-2.871094 4.40625-4.175781 6.703125-.628906 1.109375-1.183594 2.269532-1.78125 3.398438-1.03125 1.945312-2.089844 3.863281-3.023438 5.871094-.800781 1.722656-1.488281 3.511718-2.21875 5.273437-.621094 1.511719-1.3125 2.984375-1.878906 4.527344-1.246094 3.359375-2.355469 6.792969-3.328125 10.296875-15.703125-10.6875-34.738281-15.332032-53.601563-13.082032-.621093.074219-1.246093.136719-1.863281.21875-2.863281.371094-5.699219.90625-8.503906 1.597657-.101563 0-.222656 0-.328125.066406-29.367188-32.9375-36.648438-80.050781-18.589844-120.316406s58.085938-66.160157 102.214844-66.132813zm216 384h-352c-22.089844 0-40-17.910156-40-40s17.910156-40 40-40c2.164062-.007812 4.320312.1875 6.449219.585938 3 .558594 6.058593-.632813 7.882812-3.078125 1.824219-2.449219 2.101563-5.71875.707031-8.4375-8.566406-16.699219-9.351562-36.320313-2.144531-53.652344 7.207031-17.328125 21.679688-30.609375 39.5625-36.304687 6.304688-2.085938 12.902344-3.136719 19.542969-3.113282 16.453125-.027344 32.277344 6.316406 44.152344 17.703125.671875.617188 1.441406 1.113281 2.28125 1.464844.238281.113281.476562.183594.726562.273437.675782.222657 1.378906.359376 2.085938.398438.152344 0 .289062.082031.433594.082031h.175781c.792969-.007812 1.582031-.140625 2.335937-.386719 2.8125-.929687 4.878906-3.335937 5.375-6.253906 9.007813-53.9375 55.75-93.421875 110.433594-93.28125 2.449219 0 4.921875.089844 7.414062.265625 2.488282.175781 4.984376.429688 7.480469.796875h.058594c55.519531 7.539063 96.957031 54.90625 97.046875 110.9375.003906 10.113282-1.375 20.175782-4.105469 29.914063-.65625 2.332031-.214843 4.839843 1.195313 6.8125 1.410156 1.976562 3.640625 3.203125 6.0625 3.335937 30.484375 1.433594 54.210937 27.007813 53.351562 57.515625-.855468 30.507813-25.984375 54.710938-56.503906 54.421875zm0 0" fill="url(#b)"/><path d="m192 48.066406c4.417969 0 8-3.582031 8-8v-32c0-4.417968-3.582031-7.9999998-8-7.9999998s-8 3.5820318-8 7.9999998v32c0 4.417969 3.582031 8 8 8zm0 0" fill="url(#c)"/><path d="m109.070312 64.425781c1.421876 2.496094 4.066407 4.039063 6.9375 4.046875 2.871094.007813 5.527344-1.527344 6.957032-4.015625 1.429687-2.488281 1.414062-5.554687-.035156-8.03125l-16-27.703125c-1.421876-2.496094-4.066407-4.039062-6.9375-4.046875-2.871094-.003906-5.527344 1.527344-6.957032 4.015625-1.429687 2.488282-1.414062 5.554688.035156 8.03125zm0 0" fill="url(#d)"/><path d="m28.648438 106.996094 27.71875 16c3.824218 2.171875 8.683593.851562 10.882812-2.957032 2.199219-3.808593.910156-8.675781-2.882812-10.902343l-27.71875-16c-2.476563-1.449219-5.542969-1.464844-8.03125-.035157-2.488282 1.429688-4.019532 4.085938-4.015626 6.957032.007813 2.871094 1.550782 5.515625 4.046876 6.9375zm0 0" fill="url(#e)"/><path d="m8 200.066406h32c4.417969 0 8-3.582031 8-8 0-4.417968-3.582031-8-8-8h-32c-4.417969 0-8 3.582032-8 8 0 4.417969 3.582031 8 8 8zm0 0" fill="url(#f)"/><path d="m28.648438 277.136719c-2.496094 1.421875-4.039063 4.066406-4.046876 6.9375-.003906 2.871093 1.527344 5.527343 4.015626 6.957031 2.488281 1.429688 5.554687 1.414062 8.03125-.035156l27.71875-16c2.496093-1.421875 4.039062-4.066406 4.046874-6.9375.007813-2.871094-1.527343-5.527344-4.015624-6.957032-2.488282-1.429687-5.554688-1.414062-8.03125.035157zm0 0" fill="url(#e)"/><path d="m323.640625 124.066406c1.402344.003906 2.785156-.367187 4-1.070312l27.71875-16c3.792969-2.226563 5.082031-7.09375 2.882813-10.902344-2.199219-3.808594-7.058594-5.128906-10.882813-2.957031l-27.71875 16c-3.136719 1.8125-4.664063 5.503906-3.726563 9 .9375 3.496093 4.105469 5.929687 7.726563 5.929687zm0 0" fill="url(#g)"/><path d="m264 67.363281c3.828125 2.207031 8.722656.890625 10.929688-2.9375l16-27.703125c1.449218-2.476562 1.464843-5.542968.035156-8.03125-1.429688-2.488281-4.085938-4.019531-6.957032-4.015625-2.871093.007813-5.515624 1.550781-6.9375 4.046875l-16 27.703125c-1.0625 1.839844-1.351562 4.023438-.800781 6.074219.546875 2.054688 1.890625 3.800781 3.730469 4.863281zm0 0" fill="url(#h)"/></svg>