<svg height="480pt" viewBox="0 0 480 480" width="480pt" xmlns="http://www.w3.org/2000/svg" xmlns:xlink="http://www.w3.org/1999/xlink"><linearGradient id="a" gradientUnits="userSpaceOnUse" x1="240" x2="240" y1="-16.72" y2="547.888"><stop offset="0" stop-color="#006df0"/><stop offset="1" stop-color="#00e7f0"/></linearGradient><path d="m440 120h-56v-16c0-4.417969-3.582031-8-8-8h-8v-40c-.039062-30.910156-25.089844-55.9609375-56-56h-144c-30.910156.0390625-55.960938 25.089844-56 56v40h-8c-4.417969 0-8 3.582031-8 8v16h-56c-22.082031.027344-39.9726562 17.917969-40 40v144c.0195312 15.886719 9.441406 30.253906 24 36.609375v99.390625c.027344 22.082031 17.917969 39.972656 40 40h352c22.082031-.027344 39.972656-17.917969 40-40v-99.390625c14.558594-6.355469 23.980469-20.722656 24-36.609375v-144c-.027344-22.082031-17.917969-39.972656-40-40zm-272 0v-16c0-4.417969-3.582031-8-8-8h-8.320312l.160156-32.121094c.09375-13.195312 10.804687-23.851562 24-23.878906h128.160156c13.253906 0 24 10.746094 24 24v32h-8c-4.417969 0-8 3.582031-8 8v16zm160-8h40v8h-40zm-200-56c.027344-22.082031 17.917969-39.972656 40-40h144c22.082031.027344 39.972656 17.917969 40 40v40h-8v-32c-.027344-22.082031-17.917969-39.972656-40-40h-128.160156c-21.996094.050781-39.84375 17.8125-40 39.808594l-.160156 32.191406h-7.679688zm-16 56h40v8h-40zm328 328c0 13.253906-10.746094 24-24 24h-352c-13.253906 0-24-10.746094-24-24v-96h176v24c0 13.253906 10.746094 24 24 24s24-10.746094 24-24v-24h176zm-192-72c0 4.417969-3.582031 8-8 8s-8-3.582031-8-8v-72h16zm216-64c0 13.253906-10.746094 24-24 24h-176v-40c0-4.417969-3.582031-8-8-8h-32c-4.417969 0-8 3.582031-8 8v40h-176c-13.253906 0-24-10.746094-24-24v-144c0-13.253906 10.746094-24 24-24h400c13.253906 0 24 10.746094 24 24zm0 0" fill="url(#a)"/></svg>